<?xml version="1.0"?>
<svg xmlns="http://www.w3.org/2000/svg" xmlns:xlink="http://www.w3.org/1999/xlink" xmlns:svgjs="http://svgjs.com/svgjs" version="1.1" width="512" height="512" x="0" y="0" viewBox="0 0 512 512" style="enable-background:new 0 0 512 512" xml:space="preserve" class=""><g><g xmlns="http://www.w3.org/2000/svg"><g><g><g><g><g><g><g><circle cx="256" cy="256" fill="#4a4a4a" r="256" data-original="#7584f2" style="" class=""/></g></g></g></g></g></g></g><path d="m512 256c0-15.5-1.378-30.677-4.017-45.418l-84.247-84.247-335.472 259.33 122.318 122.318c14.741 2.639 29.918 4.017 45.418 4.017 141.385 0 256-114.615 256-256z" fill="#000000" data-original="#4253ce" style="" class=""/><g><path d="m88.264 126.335h335.472v259.33h-335.472z" fill="#e9edf5" data-original="#e9edf5" style="" class=""/></g><g><path d="m256.12 126.335h167.616v259.33h-167.616z" fill="#cdd2e1" data-original="#cdd2e1" style="" class=""/></g><g><path d="m124.177 163.86h263.647v184.28h-263.647z" fill="#ffffff" data-original="#ffffff" style="" class=""/></g><g><path d="m256.12 163.86h131.703v184.28h-131.703z" fill="#e9edf5" data-original="#e9edf5" style="" class=""/></g><g><path d="m357.184 436.294-33.143-21.828-33.143 21.828v-101.258h66.286z" fill="#ffffff" data-original="#ff6c52" style="" class=""/></g><path d="m323.986 335.036.055 79.43 33.143 21.828v-101.258z" fill="#257aff" data-original="#ff432e" style="" class=""/><g><path d="m152.587 190.012h86.856v30h-86.856z" fill="#cdd2e1" data-original="#cdd2e1" style="" class=""/></g><g><path d="m152.587 291.989h86.856v30h-86.856z" fill="#cdd2e1" data-original="#cdd2e1" style="" class=""/></g><g><path d="m152.587 241h213.067v30h-213.067z" fill="#cdd2e1" data-original="#cdd2e1" style="" class=""/></g><g><path d="m256.12 241h109.534v30h-109.534z" fill="#afb4c8" data-original="#afb4c8" style="" class=""/></g><g><circle cx="324.041" cy="329.201" fill="#ff6c52" r="50.26" data-original="#ffce00" style="" class=""/></g><g><path d="m324.041 278.941c-.018 0-.036.001-.055.001v100.516c.018 0 .036.001.055.001 27.758 0 50.259-22.502 50.259-50.26 0-27.756-22.502-50.258-50.259-50.258z" fill="#ff432e" data-original="#fdba12" style="" class=""/></g></g></g></svg>
